<svg version="1.1" xmlns="http://www.w3.org/2000/svg" xmlns:xlink="http://www.w3.org/1999/xlink" width="106.36809" height="108.31755" viewBox="0,0,106.36809,108.31755"><g transform="translate(-186.74131,-126.40524)"><g data-paper-data="{&quot;isPaintingLayer&quot;:true}" fill-rule="evenodd" stroke="none" stroke-width="1" stroke-linecap="butt" stroke-linejoin="miter" stroke-miterlimit="10" stroke-dasharray="" stroke-dashoffset="0" style="mix-blend-mode: normal"><path d="M291.1,187.6c-0.6,0.9 -1.6,1.6 -2.3,2.5c-1.6,2.1 -1.6,4 -0.7,6.4c2,5.2 0.7,11.2 -3.5,14.9c-2,1.8 -4.7,2.9 -7.3,3.2c-3.6,0.4 -3.4,0.4 -6.4,3.3c-2.5,2.6 -3,7 -5.6,9.5c-1.6,1.6 -4.2,4.3 -10.5,3.2c-3.4,-0.7 -5.9,-1.7 -9.2,-2.4c-4.9,-1 -4.3,-0.5 -7.8,2.4c-4.7,3.8 -11.6,6.1 -16.5,1.8c-2.6,-2.3 -3.9,-5.1 -5.9,-7.8c-3,-4.1 -6.4,-3.8 -11,-4.1c-5.2,-0.3 -8.7,-4.9 -8.7,-10.3c-0.1,-3.5 0.4,-7.3 -1.6,-10.5c-1.5,-2.4 -3,-4.2 -4.7,-6.4c-4.4,-5.5 -2.6,-10.9 0.1,-16.6c2,-4.2 -2.9,-6.3 -1.8,-10.4c0.7,-2.6 8.3,-6.2 8.8,-13c0.2,-2.6 -0.6,-10.9 5.1,-10.3c1.7,0.2 4,0.3 5.5,-0.7c1.9,-1.3 1.9,-1.9 2.3,-4c1.2,-6.4 5.2,-9.7 11.8,-7.7c2.5,0.8 4.4,2 7,1.7c2.7,-0.3 4,-2.3 6.2,-3.6c2.4,-1.5 5.9,-2.8 8.8,-2.1c2.8,0.7 3.2,2.9 4.8,5c3.3,4.3 7.3,0.6 11.3,0.1c4.9,-0.6 9,2.2 10,6.4c0.4,1.6 0.9,2.7 2,3.9c1.5,1.6 2.2,1.7 4.2,1.8c2.4,0.1 5.7,1.2 7.4,2.9c4.8,5 0.4,11.6 1,17.6c0.4,4.5 4.1,5.7 6.6,8.8c1.6,1.9 2.5,4.4 2.6,6.9c0.1,2.7 -0.6,5.4 -2,7.6z" fill="#e29600"/><path d="M286.3,190.8c0.8,3.5 1.1,7.3 -1.1,10.4c-1.3,1.8 -3.1,1.7 -4.4,3.1c-3.3,3.6 -0.9,8.8 -3.9,13.4c-1.7,2.6 -7.1,3 -10.3,3.2c-0.3,0 -1.9,0.3 -2.1,1.6c-1.4,5 -7.2,5.8 -12.1,6.2c-3.7,0.3 -6.6,2.5 -10.4,1.9c-1.7,-0.3 -3.4,-1.2 -5.1,-1.4c-2.6,-0.3 -3.5,0.9 -5.7,1.2c-3.3,0.3 -5.2,-2.2 -8,-3.3c-2.9,-1.1 -6.1,-0.7 -8.9,-2.2c-3,-1.6 -4.6,-4.7 -7.4,-6.5c-2.2,-1.4 -3.5,-3.1 -4.6,-5.5c-1,-2 -1.2,-3.5 -3.2,-4.8c-1,-0.7 -1.8,-0.9 -2.7,-1.8c-2.2,-2.2 -4.9,-3.2 -5.3,-9c-0.1,-1.7 -0.7,-2.9 -0.7,-4.6c0,-1.8 -0.2,-3 -0.7,-4.9c-1,-3.3 0.5,-6.5 1.2,-9.9c0.8,-4.3 -0.2,-7.7 0,-12.1c0.1,-3.1 1.1,-5.4 3.3,-7.6c1.4,-1.3 3.2,-2.1 4.3,-3.8c1.2,-1.9 1.5,-4.2 2.4,-6.2c1.1,-2.5 2.6,-4.5 5.2,-5.7c0.2,-0.1 8.3,-2.9 14.5,-9c4,-4 9,-0.5 14.2,-0.3c5.8,0.2 10.6,-2.4 16.3,-0.2c2.6,1 5,2.7 7.6,3.5c2.5,0.8 4,-0.1 6.6,0.5c4.9,1.2 7.1,10 10.7,14.3c3.6,4.2 8.4,4.7 9.7,10.5c0.7,2.8 -0.3,5.5 0.9,8.1c1,2.1 2.7,3.7 3.4,5.9c1.5,4.9 -4.6,11.6 -3.7,15z" fill="#c38200"/><path d="M239.1,135.4c5.1,0 10.9,3.3 15.5,5c4.9,1.7 9.1,1.3 13.1,4.5c3.7,3 3.3,6.9 5.9,11c1.8,2.8 6.7,5 8.4,8.6c2.4,5 1.4,11.5 1.4,16.5c0,3.4 1.4,9.9 0.7,13.1c-1.7,7.4 -9.3,9.7 -14.1,15.2c-3.9,4.4 -6.4,9.1 -11.7,11.6c-5.8,2.8 -10.7,6.8 -17.6,6.8c-3.7,0 -8.9,-5 -12.3,-5.9c-4.6,-1.1 -13.6,1.1 -15.8,-3c-7.4,-14 -9.8,-12.1 -13.3,-17.3c-4.7,-7 -3.1,-11.9 -3.1,-21c0,-4.7 -2.6,-9.2 -1.2,-13.4c1.7,-5.3 6.4,-9.7 9.8,-13.9c4.8,-6 13.7,-8.5 20.9,-11.4c4.8,-1.9 7.7,-6.4 13.4,-6.4z" fill="#b47800"/><path d="M199.2,181c0,-22.03616 17.86384,-39.9 39.9,-39.9c22.03616,0 39.9,17.86384 39.9,39.9c0,22.03616 -17.86384,39.9 -39.9,39.9c-22.03616,0 -39.9,-17.86384 -39.9,-39.9z" fill="#b47800"/></g></g></svg>